# Blender v2.93.1 OBJ File: ''
# www.blender.org
mtllib link3.mtl
o link3
v 0.069451 -0.045280 -0.181498
v 0.082376 -0.011752 -0.181497
v 0.193794 0.001165 -0.044419
v 0.187182 0.136955 -0.029847
v 0.171660 0.151506 -0.028665
v 0.192267 0.139526 -0.006994
v -0.025013 0.079137 -0.181501
v 0.117031 0.151546 -0.055249
v 0.014260 0.082452 -0.181497
v 0.147972 0.151605 -0.049565
v 0.199712 0.099188 -0.021372
v 0.195200 0.130077 -0.012383
v 0.202761 0.098723 -0.001895
v 0.168048 0.000901 0.070057
v 0.153701 0.000847 0.077203
v 0.007622 -0.067372 -0.057508
v -0.009091 -0.065021 -0.052075
v 0.123284 0.000851 0.082735
v 0.137884 0.000917 0.081767
v 0.170862 0.137318 -0.051658
v 0.076788 0.001327 0.068196
v -0.052265 -0.020877 -0.039230
v -0.045280 -0.034719 -0.039967
v -0.042704 -0.044362 -0.045256
v -0.033914 -0.050705 -0.044583
v -0.074423 0.037000 -0.181489
v -0.076699 0.024914 -0.134930
v -0.072043 0.038854 -0.152391
v -0.059579 0.056876 -0.160466
v -0.055630 0.061535 -0.181527
v 0.206341 0.000887 -0.007798
v 0.202470 0.000873 -0.025964
v 0.145699 0.099463 0.075696
v 0.159680 0.098416 0.070321
v 0.156291 0.129673 0.064952
v 0.173941 0.099816 0.060894
v 0.052677 0.064515 -0.181497
v 0.112114 0.163797 -0.020652
v 0.123331 0.161349 -0.030639
v 0.074822 0.035680 -0.181500
v 0.002902 -0.081800 -0.152814
v -0.010695 -0.082002 -0.181493
v 0.008603 -0.082376 -0.181497
v 0.195026 0.098026 -0.034156
v 0.180813 0.000819 0.060087
v 0.190962 0.000761 0.048371
v 0.198567 0.000913 0.035750
v 0.188778 0.098873 0.045026
v 0.199863 0.099299 0.021576
v 0.205334 0.000816 0.015318
v 0.171820 0.140714 0.048210
v 0.183993 0.140621 0.032132
v 0.160306 0.151506 0.041863
v 0.186837 0.098721 -0.047372
v 0.081601 0.013453 -0.181500
v 0.181659 0.127461 -0.044751
v 0.016729 -0.076438 -0.113441
v 0.061917 0.134229 0.034340
v -0.059634 0.031372 -0.055694
v -0.057901 0.018854 -0.044347
v 0.070676 0.151305 0.015630
v -0.055227 0.040823 -0.060587
v 0.135347 0.138447 0.068560
v 0.157053 0.140233 0.059999
v 0.174081 0.129249 0.052182
v 0.195582 0.130279 0.007937
v 0.138876 0.162319 -0.023902
v 0.049438 -0.066562 -0.181498
v 0.028262 -0.077684 -0.181507
v -0.012457 -0.080601 -0.148277
v -0.028201 -0.077326 -0.161851
v -0.038538 -0.073499 -0.181497
v -0.005826 -0.074513 -0.090104
v 0.010920 -0.071668 -0.078344
v -0.006213 -0.079128 -0.123185
v 0.006907 -0.078367 -0.118284
v 0.078381 0.135134 0.054408
v 0.079701 0.151364 0.033686
v 0.095633 0.160386 -0.018823
v 0.068168 0.151306 -0.003698
v -0.072603 0.017176 -0.089743
v -0.077298 0.001430 -0.106317
v -0.069230 0.004213 -0.062461
v 0.179096 0.151408 0.000656
v 0.148607 0.162999 -0.008603
v 0.152382 0.161570 0.009981
v 0.174576 0.151399 0.021418
v 0.186368 0.129942 0.036576
v 0.190221 0.139136 0.019179
v 0.124424 0.166804 -0.002394
v 0.129985 0.164847 -0.017945
v 0.136793 0.164097 0.018904
v 0.139133 0.165504 0.001330
v 0.114150 0.165219 0.014186
v 0.113773 0.138557 0.068330
v 0.105131 0.151552 0.052559
v 0.128154 0.098969 0.078919
v 0.116665 0.128708 0.072595
v 0.107228 0.000852 0.081287
v -0.023783 -0.057570 -0.046457
v 0.088918 0.000909 0.075165
v -0.078012 -0.025156 -0.153522
v -0.077411 -0.029092 -0.181500
v -0.070130 -0.044310 -0.181437
v -0.019743 -0.076010 -0.116498
v -0.066619 -0.013062 -0.057753
v -0.071599 -0.011174 -0.077866
v -0.068110 -0.027436 -0.083245
v -0.060851 -0.028503 -0.055243
v -0.006099 -0.068682 -0.061574
v -0.043390 -0.068965 -0.147118
v -0.031730 -0.073123 -0.126689
v -0.041299 -0.066039 -0.111423
v -0.023301 -0.070521 -0.087818
v 0.095508 0.135854 0.064737
v 0.095724 0.162391 0.001055
v -0.067463 0.037543 -0.105856
v -0.060550 0.052643 -0.130004
v 0.104146 0.098319 0.076520
v 0.076654 0.100851 0.063019
v -0.056794 0.004089 -0.039752
v -0.079163 0.012360 -0.131119
v -0.081923 0.013372 -0.181457
v -0.081633 0.003016 -0.149493
v 0.135031 0.151422 0.054199
v 0.020744 -0.079149 -0.151787
v -0.067707 -0.044384 -0.138585
v -0.072099 -0.032364 -0.120512
v -0.056805 -0.060513 -0.181407
v -0.055165 -0.058071 -0.130126
v -0.081969 -0.011409 -0.181494
v -0.081078 -0.007813 -0.146784
v -0.062056 -0.040128 -0.085425
v -0.064944 0.019120 -0.057140
v -0.064911 0.002133 -0.050426
v -0.029289 -0.063468 -0.065424
v -0.019731 -0.064544 -0.056486
v -0.068878 0.027400 -0.087253
v -0.056678 0.049900 -0.095198
v -0.058976 -0.006325 -0.042174
v -0.037864 -0.055535 -0.055479
v 0.108870 0.165652 0.000086
v 0.128014 0.163026 0.025706
v 0.114453 0.162412 0.026338
v 0.089021 0.099292 0.070784
v -0.076455 -0.017464 -0.114916
v -0.058383 -0.050089 -0.104832
v -0.044132 -0.059435 -0.086225
v -0.050576 -0.046358 -0.059644
v 0.099953 0.161865 0.017072
v -0.054030 -0.034407 -0.048973
v -0.059444 -0.016841 -0.045595
vn 0.7556 -0.2913 -0.5867
vn 0.6568 0.7191 -0.2270
vn -0.0759 0.8994 -0.4305
vn 0.0972 0.8376 -0.5375
vn 0.9716 0.1849 -0.1477
vn 0.1561 -0.9391 0.3063
vn 0.0125 -0.9032 0.4291
vn 0.0316 -0.9088 0.4160
vn 0.5976 0.6729 -0.4360
vn -0.5704 -0.3280 0.7530
vn -0.4770 -0.5172 0.7107
vn -0.4526 -0.5531 0.6994
vn -0.9259 0.3742 0.0519
vn -0.7938 0.6080 -0.0143
vn 0.9774 0.0372 -0.2083
vn 0.3647 0.1959 0.9103
vn 0.5478 0.0448 0.8354
vn 0.8791 0.4107 -0.2418
vn 0.3155 0.6758 -0.6661
vn -0.1036 0.9328 -0.3450
vn 0.5433 0.4173 -0.7285
vn -0.0194 -0.9997 0.0162
vn 0.9087 0.2222 -0.3533
vn 0.1001 -0.9272 0.3610
vn 0.1964 -0.9457 0.2592
vn 0.8558 0.0366 0.5161
vn 0.9915 0.0474 0.1213
vn 0.5109 0.7699 0.3823
vn 0.7749 0.0362 -0.6310
vn 0.7748 0.0271 -0.6317
vn 0.7749 0.0339 -0.6312
vn 0.7747 0.0238 -0.6319
vn 0.8587 0.2240 -0.4609
vn 0.7294 0.4215 -0.5388
vn 0.2763 -0.9485 0.1551
vn -0.7386 0.3938 0.5472
vn -0.7201 0.6462 0.2527
vn 0.2618 0.2406 0.9346
vn 0.4023 0.7434 0.5343
vn 0.5576 0.3192 0.7663
vn 0.5730 0.3669 0.7328
vn 0.9735 0.2279 -0.0206
vn 0.9757 0.1859 0.1159
vn 0.2611 0.9202 -0.2916
vn 0.6696 -0.6296 -0.3940
vn 0.4636 -0.8828 -0.0760
vn 0.4870 -0.8673 -0.1031
vn 0.9368 0.0425 -0.3472
vn 0.9156 0.2297 -0.3299
vn 0.4454 0.0358 0.8946
vn 0.7310 0.0452 0.6808
vn 0.2335 -0.9501 0.2070
vn 0.6738 0.2511 -0.6949
vn 0.6959 0.2122 -0.6861
vn 0.7102 0.1898 -0.6779
vn 0.4308 0.7612 -0.4847
vn -0.0665 -0.9970 0.0385
vn -0.2919 -0.9559 -0.0326
vn 0.0658 -0.9872 0.1451
vn 0.3166 -0.9431 0.1021
vn 0.3128 -0.9437 0.1080
vn 0.3142 -0.9434 0.1058
vn 0.0058 -0.9904 0.1381
vn -0.7291 0.3603 0.5819
vn -0.6505 0.6875 0.3229
vn -0.3897 0.9063 -0.1636
vn -0.4963 0.8634 -0.0904
vn -0.9788 0.1096 0.1731
vn 0.3614 0.0436 0.9314
vn 0.6117 0.7763 -0.1525
vn 0.3554 0.9347 -0.0003
vn 0.5059 0.7889 0.3490
vn 0.7224 0.1931 0.6640
vn 0.7290 0.3479 0.5894
vn 0.9514 0.3072 -0.0210
vn 0.8930 0.4435 0.0764
vn 0.6889 0.7220 0.0646
vn 0.9360 0.2419 0.2557
vn -0.0373 0.9897 -0.1379
vn 0.0689 0.9206 -0.3843
vn 0.0956 0.9302 -0.3545
vn 0.3405 0.6457 -0.6835
vn 0.8379 0.1974 -0.5088
vn 0.8503 0.0448 -0.5245
vn 0.2194 -0.9481 0.2302
vn 0.9871 0.0454 -0.1535
vn 0.0655 0.9939 0.0883
vn 0.2184 0.9700 0.1067
vn 0.2736 0.9617 0.0184
vn 0.0261 0.9935 0.1112
vn -0.0029 0.7710 0.6369
vn 0.1702 0.2210 0.9603
vn -0.0078 0.3954 0.9185
vn -0.0426 -0.8805 0.4721
vn -0.1917 -0.8033 0.5639
vn -0.1912 -0.8036 0.5636
vn -0.1914 -0.8035 0.5638
vn -0.1909 -0.8037 0.5635
vn -0.9014 -0.4311 0.0413
vn -0.2667 -0.9606 0.0776
vn -0.9402 -0.2703 0.2074
vn -0.9237 -0.3080 0.2277
vn -0.2274 -0.9734 0.0290
vn -0.0160 -0.9347 0.3551
vn 0.0311 -0.9781 0.2057
vn 0.0262 -0.9793 0.2009
vn 0.0256 -0.9794 0.2004
vn 0.0321 -0.9779 0.2067
vn 0.1032 -0.9782 0.1804
vn -0.4845 -0.8691 0.0996
vn -0.1999 -0.9666 0.1602
vn -0.6046 0.6453 0.4669
vn -0.3894 0.7016 0.5968
vn -0.4106 0.7304 0.5459
vn -0.2370 0.6820 0.6919
vn -0.3801 0.9236 0.0494
vn -0.2250 0.9281 -0.2967
vn -0.1599 0.9232 -0.3496
vn -0.8158 0.5776 0.0299
vn -0.8366 0.5390 0.0975
vn -0.1025 0.1688 0.9803
vn -0.0925 0.0437 0.9948
vn -0.1006 0.0454 0.9939
vn -0.0980 0.0449 0.9942
vn -0.0897 0.0431 0.9950
vn -0.6275 0.0396 0.7776
vn -0.9872 0.1486 0.0571
vn -0.9762 0.2091 0.0577
vn 0.3110 0.3851 0.8689
vn 0.1982 0.7294 0.6547
vn 0.5267 0.1991 0.8264
vn 0.5710 0.2305 0.7879
vn 0.6215 0.7541 0.2124
vn 0.6232 0.7702 0.1360
vn 0.3795 0.9215 0.0830
vn 0.8602 0.3468 0.3738
vn 0.7340 0.3935 0.5535
vn -0.0179 0.9663 -0.2569
vn 0.1441 -0.9884 0.0485
vn 0.6268 -0.7166 -0.3060
vn 0.9047 0.0335 -0.4248
vn 0.3620 -0.9311 0.0457
vn 0.1792 0.0463 0.9827
vn 0.2772 0.0372 0.9601
vn 0.6153 0.0363 0.7875
vn 0.7554 0.0391 0.6541
vn 0.9026 0.0497 0.4276
vn 0.9985 0.0339 0.0436
vn 0.2801 0.9332 0.2250
vn 0.3136 0.9251 0.2141
vn -0.6847 0.2098 0.6979
vn -0.9002 -0.4302 0.0673
vn -0.5791 -0.8148 0.0257
vn -0.1757 -0.9792 0.1012
vn -0.4379 -0.8972 0.0577
vn -0.4390 -0.8967 0.0563
vn -0.4339 -0.8988 0.0627
vn -0.5939 -0.7983 0.1002
vn -0.7717 -0.6346 0.0425
vn -1.0000 0.0018 0.0097
vn -0.9683 -0.2496 0.0143
vn -0.9947 -0.0263 0.0989
vn -0.8685 -0.4500 0.2080
vn -0.8590 0.1868 0.4768
vn -0.8314 0.3056 0.4641
vn -0.4343 -0.8859 0.1629
vn -0.4210 -0.8944 0.1512
vn -0.3026 -0.9293 0.2118
vn -0.1942 -0.9615 0.1946
vn -0.2129 -0.9550 0.2064
vn -0.1570 -0.9779 0.1383
vn -0.3579 0.9292 -0.0921
vn -0.9795 0.1465 0.1383
vn -0.9654 0.2279 0.1266
vn -0.9350 0.2914 0.2023
vn -0.8599 0.4727 0.1924
vn -0.9045 0.3661 0.2188
vn -0.7454 0.5458 0.3828
vn -0.9198 0.3697 0.1316
vn -0.9409 0.3091 0.1382
vn -0.9526 0.3024 0.0319
vn -0.6855 0.7159 0.1327
vn -0.8094 0.5846 0.0554
vn -0.8990 0.4262 0.1005
vn -0.8013 0.5829 0.1351
vn -0.8126 0.5545 0.1795
vn -0.7981 0.0272 0.6019
vn -0.8007 0.1225 0.5864
vn -0.6764 0.1722 0.7162
vn -0.1695 -0.9364 0.3074
vn -0.4051 -0.8524 0.3306
vn 0.0847 0.2384 0.9675
vn 0.9129 0.2408 0.3295
vn 0.1501 0.9831 -0.1047
vn 0.1092 0.9903 -0.0856
vn -0.2140 0.9694 -0.1202
vn 0.1736 0.9728 -0.1536
vn 0.2770 0.9359 -0.2178
vn 0.3783 0.9210 -0.0929
vn 0.2321 -0.9726 0.0108
vn 0.3919 -0.9199 0.0143
vn 0.9488 0.0327 0.3141
vn 0.1572 0.9252 0.3453
vn 0.1612 0.9271 0.3385
vn 0.1618 0.9272 0.3378
vn 0.1562 0.9247 0.3472
vn 0.2623 0.7978 0.5429
vn -0.0168 0.9246 0.3807
vn -0.0205 0.9256 0.3780
vn -0.0229 0.9263 0.3761
vn -0.0335 0.7412 0.6704
vn -0.0244 0.9267 0.3751
vn -0.3347 0.2113 0.9183
vn -0.2690 0.2316 0.9349
vn -0.3519 0.0420 0.9351
vn -0.2289 0.3294 0.9160
vn -0.4133 -0.6018 0.6834
vn -0.8959 -0.4414 0.0499
vn -0.4329 -0.8992 0.0640
vn -0.3397 -0.9307 0.1360
vn -0.6324 -0.7725 0.0570
vn -0.9888 -0.0961 0.1143
vn -0.9806 -0.1908 0.0449
vn -0.9929 0.0619 0.1020
vn -0.8188 -0.5587 0.1318
vn -0.8512 -0.5083 0.1312
vn -0.9508 -0.2598 0.1687
vn -0.8814 -0.4468 0.1534
vn -0.0563 -0.9958 0.0725
vn 0.0217 -0.9951 0.0964
vn -0.4760 -0.8624 0.1725
vn -0.6340 0.7716 0.0518
vn -0.6572 0.7489 0.0848
vn -0.6575 0.7486 0.0854
vn -0.6567 0.7495 0.0838
vn -0.8471 0.4950 0.1931
vn 0.0659 0.0355 0.9972
vn -0.2397 -0.8398 0.4871
vn -0.4246 -0.7606 0.4911
vn -0.3858 -0.8232 0.4165
vn -0.6175 -0.7547 0.2216
vn 0.8874 0.1838 0.4228
vn -0.0897 0.9907 -0.1027
vn 0.0702 0.9517 -0.2990
vn -0.3421 0.9319 0.1210
vn -0.3418 0.9247 0.1678
vn -0.0650 0.9964 0.0550
vn -0.0335 0.9736 0.2257
vn -0.2332 0.9679 0.0934
vn -0.2078 0.9722 0.1077
vn -0.4967 0.0391 0.8670
vn -0.5273 0.0434 0.8486
vn -0.5093 0.2337 0.8282
vn -0.4972 0.2267 0.8375
vn -0.3168 0.0363 0.9478
vn -0.2998 -0.9503 0.0835
vn -0.6682 -0.7297 0.1452
vn -0.6220 -0.7718 0.1323
vn -0.9826 -0.0317 0.1828
vn -0.9342 -0.3268 0.1432
vn -0.7750 -0.5306 0.3434
vn -0.6210 -0.1300 0.7729
vn -0.8609 -0.1223 0.4938
vn -0.8711 -0.1304 0.4735
vn -0.9428 -0.0528 0.3293
vn -0.9242 0.1388 0.3557
vn -0.7129 0.6704 0.2057
vn -0.6564 0.7498 0.0833
vn -0.6284 -0.0490 0.7764
vn -0.6686 -0.5934 0.4481
vn -0.6314 -0.4957 0.5963
vn -0.6910 -0.7008 0.1772
vn 0.2609 -0.9499 0.1723
vn -0.2463 0.9644 -0.0962
vn 0.0130 0.9850 0.1719
vn -0.7529 -0.6558 0.0553
vn -0.7644 -0.6364 0.1036
vn -0.9758 -0.2035 0.0799
vn -0.9986 -0.0437 0.0302
vn -0.9442 -0.3138 0.1006
vn -0.9691 -0.0832 0.2321
vn -0.9828 -0.1110 0.1477
vn -0.8160 -0.5277 0.2358
vn -0.7089 -0.1894 0.6794
vn -0.7790 -0.3412 0.5261
vn -0.6719 -0.3731 0.6398
vn -0.9566 0.1991 0.2128
vn 0.3180 -0.9428 0.0999
vn 0.1492 -0.9852 0.0846
vn 0.1437 -0.9862 0.0824
vn 0.1419 -0.9865 0.0816
vn -0.5205 -0.8273 0.2111
vn -0.2285 0.9255 0.3022
vn -0.2298 0.9251 0.3024
vn -0.2314 0.9247 0.3025
vn -0.2281 0.9255 0.3022
vn -0.5325 -0.6853 0.4968
vn -0.7527 -0.6327 0.1823
vn 0.1513 -0.9848 0.0855
vn -0.6169 -0.6598 0.4290
vn -0.8656 -0.2531 0.4321
vn -0.7236 -0.3387 0.6014
vn -0.1803 0.9574 0.2256
vn 0.7608 0.2246 0.6089
vn -0.3429 -0.6822 0.6458
vn 0.0001 -0.0003 -1.0000
vn 0.0000 -0.0000 -1.0000
vn -0.0000 -0.0001 -1.0000
vn 0.0001 0.0002 -1.0000
vn 0.0002 0.0001 -1.0000
vn -0.0001 0.0000 -1.0000
vn -0.0004 -0.0001 -1.0000
vn 0.0003 -0.0010 -1.0000
vn 0.0026 -0.0033 -1.0000
vn 0.0002 -0.0007 -1.0000
vn 0.0037 -0.0019 -1.0000
vn -0.0001 -0.0001 -1.0000
vn -0.0041 0.0004 -1.0000
vn 0.0005 -0.0002 -1.0000
vn 0.0031 -0.0039 -1.0000
vn -0.0021 0.0012 -1.0000
usemtl DefaultMaterial.004
s 1
f 1//1 2//1 3//1
f 4//2 5//2 6//2
f 7//3 8//3 9//3
f 9//4 8//4 10//4
f 11//5 12//5 13//5
f 14//6 15//6 16//6
f 17//7 16//7 18//7
f 16//8 19//8 18//8
f 20//9 5//9 4//9
f 21//10 22//10 23//10
f 23//11 24//11 21//11
f 25//12 21//12 24//12
f 26//13 27//13 28//13
f 26//14 29//14 30//14
f 11//15 31//15 32//15
f 33//16 34//16 35//16
f 36//17 34//17 14//17
f 12//18 4//18 6//18
f 37//19 9//19 20//19
f 38//20 39//20 8//20
f 37//21 20//21 40//21
f 41//22 42//22 43//22
f 11//23 44//23 4//23
f 19//24 16//24 15//24
f 14//25 16//25 45//25
f 46//26 47//26 48//26
f 13//27 49//27 50//27
f 51//28 52//28 53//28
f 54//29 3//30 55//31
f 55//31 3//30 2//32
f 44//33 56//33 4//33
f 56//34 20//34 4//34
f 47//35 46//35 57//35
f 58//36 59//36 60//36
f 58//37 61//37 62//37
f 35//38 63//38 33//38
f 51//39 53//39 64//39
f 64//40 35//40 65//40
f 64//41 65//41 51//41
f 66//42 13//42 12//42
f 66//43 49//43 13//43
f 10//44 67//44 5//44
f 1//45 3//45 68//45
f 31//46 69//46 68//46
f 31//47 68//47 32//47
f 11//48 32//48 44//48
f 12//49 11//49 4//49
f 14//50 34//50 15//50
f 45//51 48//51 36//51
f 16//52 46//52 45//52
f 40//53 20//53 56//53
f 56//54 55//54 40//54
f 54//55 55//55 56//55
f 10//56 5//56 20//56
f 41//57 70//57 42//57
f 71//58 72//58 42//58
f 73//59 57//59 74//59
f 50//60 47//61 57//62
f 75//63 76//63 73//63
f 77//64 58//64 60//64
f 61//65 58//65 78//65
f 79//66 7//66 80//66
f 7//67 30//67 80//67
f 81//68 82//68 83//68
f 33//69 15//69 34//69
f 84//70 6//70 5//70
f 85//71 86//71 84//71
f 53//72 52//72 87//72
f 48//73 65//73 36//73
f 65//74 88//74 51//74
f 12//75 6//75 66//75
f 89//76 66//76 6//76
f 6//77 84//77 89//77
f 89//78 49//78 66//78
f 38//79 90//79 91//79
f 8//80 39//80 10//80
f 39//81 67//81 10//81
f 20//82 9//82 10//82
f 54//83 56//83 44//83
f 3//84 54//84 44//84
f 74//85 46//85 16//85
f 13//86 31//86 11//86
f 90//87 92//87 93//87
f 93//88 92//88 86//88
f 86//89 85//89 93//89
f 90//90 94//90 92//90
f 95//91 63//91 96//91
f 63//92 97//92 33//92
f 63//93 95//93 98//93
f 99//94 17//94 18//94
f 100//95 17//96 101//97
f 101//97 17//96 99//98
f 102//99 103//99 104//99
f 70//100 105//100 71//100
f 106//101 107//101 108//101
f 108//102 109//102 106//102
f 70//103 71//103 42//103
f 110//104 16//104 17//104
f 74//105 110//106 73//107
f 16//108 110//106 74//105
f 76//109 57//109 73//109
f 111//110 112//110 113//110
f 105//111 73//111 114//111
f 77//112 78//112 58//112
f 96//113 77//113 115//113
f 96//114 78//114 77//114
f 95//115 96//115 115//115
f 116//116 80//116 61//116
f 7//117 79//117 38//117
f 8//118 7//118 38//118
f 28//119 29//119 26//119
f 28//120 117//120 118//120
f 97//121 98//121 119//121
f 97//122 119//123 99//124
f 97//122 99//124 18//125
f 120//126 121//126 21//126
f 122//127 123//127 124//127
f 123//128 122//128 27//128
f 63//129 35//129 64//129
f 64//130 125//130 63//130
f 36//131 35//131 34//131
f 36//132 65//132 35//132
f 52//133 89//133 87//133
f 89//134 84//134 87//134
f 84//135 86//135 87//135
f 88//136 89//136 52//136
f 51//137 88//137 52//137
f 91//138 39//138 38//138
f 43//139 126//139 41//139
f 3//140 32//140 68//140
f 44//141 32//141 3//141
f 50//142 126//142 69//142
f 33//143 97//143 19//143
f 19//144 15//144 33//144
f 45//145 36//145 14//145
f 45//146 46//146 48//146
f 49//147 48//147 47//147
f 50//148 31//148 13//148
f 86//149 92//149 53//149
f 53//150 87//150 86//150
f 60//151 120//151 77//151
f 127//152 128//152 102//152
f 129//153 72//153 111//153
f 105//154 70//154 75//154
f 111//155 72//156 71//157
f 130//158 111//158 113//158
f 129//159 127//159 104//159
f 131//160 124//160 123//160
f 131//161 103//161 102//161
f 132//162 82//162 124//162
f 133//163 109//163 108//163
f 134//164 135//164 60//164
f 134//165 60//165 59//165
f 113//166 114//166 136//166
f 113//167 112//167 114//167
f 136//168 114//168 137//168
f 114//169 73//169 110//169
f 137//170 114//170 110//170
f 105//171 75//171 73//171
f 80//172 116//172 79//172
f 81//173 122//173 82//173
f 81//174 27//174 122//174
f 134//175 138//175 81//175
f 59//176 117//176 138//176
f 59//177 138//177 134//177
f 58//178 62//178 59//178
f 117//179 27//179 138//179
f 27//180 81//180 138//180
f 26//181 123//181 27//181
f 61//182 118//182 139//182
f 29//183 28//183 118//183
f 27//184 117//184 28//184
f 117//185 139//185 118//185
f 139//186 117//186 62//186
f 140//187 121//187 135//187
f 60//188 135//188 121//188
f 121//189 120//189 60//189
f 110//190 17//190 137//190
f 136//191 137//191 141//191
f 63//192 98//192 97//192
f 89//193 88//193 49//193
f 93//194 85//194 91//194
f 93//195 91//195 90//195
f 79//196 142//196 38//196
f 91//197 85//197 67//197
f 5//198 67//198 85//198
f 85//199 84//199 5//199
f 126//200 43//200 69//200
f 69//201 31//201 50//201
f 49//202 47//202 50//202
f 53//203 143//204 125//205
f 53//203 92//206 143//204
f 53//207 125//207 64//207
f 125//208 143//209 96//210
f 96//211 63//211 125//211
f 96//210 143//209 144//212
f 115//213 145//213 119//213
f 115//214 119//214 98//214
f 145//215 101//215 119//215
f 95//216 115//216 98//216
f 101//217 21//217 25//217
f 104//218 127//218 102//218
f 112//219 111//155 71//157
f 112//220 105//220 114//220
f 130//221 129//221 111//221
f 132//222 146//222 82//222
f 102//223 132//223 131//223
f 122//224 124//224 82//224
f 127//225 147//225 133//225
f 127//226 133//226 128//226
f 108//227 107//227 146//227
f 133//228 108//228 128//228
f 75//229 70//229 41//229
f 41//230 76//230 75//230
f 113//231 136//231 148//231
f 30//232 29//232 80//232
f 118//233 61//234 80//235
f 117//236 59//236 62//236
f 97//237 18//237 19//237
f 137//238 17//238 100//238
f 141//239 100//239 25//239
f 137//240 100//240 141//240
f 149//241 148//241 141//241
f 88//242 48//242 49//242
f 142//243 90//243 38//243
f 91//244 67//244 39//244
f 150//245 116//245 61//245
f 150//246 61//246 78//246
f 94//247 90//247 142//247
f 143//248 94//248 144//248
f 116//249 150//249 142//249
f 142//250 150//250 94//250
f 145//251 21//251 101//251
f 21//252 145//252 120//252
f 115//253 77//253 120//253
f 120//254 145//254 115//254
f 99//255 119//255 101//255
f 71//256 105//256 112//256
f 148//257 147//257 130//257
f 148//258 130//258 113//258
f 83//259 82//259 107//259
f 108//260 146//260 128//260
f 149//261 151//261 109//261
f 22//262 21//262 140//262
f 135//263 152//263 140//263
f 135//264 106//264 152//264
f 135//265 83//265 106//265
f 83//266 135//266 134//266
f 62//267 61//267 139//267
f 80//235 29//268 118//233
f 121//269 140//269 21//269
f 151//270 149//270 24//270
f 151//271 24//271 23//271
f 147//272 148//272 149//272
f 46//273 74//273 57//273
f 79//274 116//274 142//274
f 92//275 94//275 143//275
f 130//276 127//276 129//276
f 130//277 147//277 127//277
f 132//278 102//278 146//278
f 124//279 131//279 132//279
f 146//280 102//280 128//280
f 106//281 83//281 107//281
f 146//282 107//282 82//282
f 149//283 109//283 133//283
f 140//284 152//284 22//284
f 152//285 109//285 151//285
f 22//286 151//286 23//286
f 134//287 81//287 83//287
f 57//62 126//288 50//60
f 126//289 76//290 41//291
f 141//292 148//292 136//292
f 96//293 150//294 78//295
f 150//294 96//293 144//296
f 141//297 25//297 24//297
f 133//298 147//298 149//298
f 126//289 57//299 76//290
f 149//300 141//300 24//300
f 152//301 106//301 109//301
f 151//302 22//302 152//302
f 144//303 94//303 150//303
f 65//304 48//304 88//304
f 25//305 100//305 101//305
f 7//306 2//307 1//307
f 7//306 40//307 55//308
f 7//306 55//308 2//307
f 7//306 37//309 40//307
f 7//306 1//307 68//310
f 7//306 69//311 43//312
f 7//306 9//309 37//309
f 7//306 123//313 26//314
f 129//315 104//316 7//306
f 42//317 72//318 7//306
f 104//316 103//319 7//306
f 7//306 26//314 30//320
f 7//306 43//312 42//317
f 7//306 68//310 69//311
f 103//319 131//321 7//306
f 131//321 123//313 7//306
f 72//318 129//315 7//306
