# Blender v2.93.1 OBJ File: ''
# www.blender.org
mtllib link2.mtl
o link2
v 0.082170 0.013133 0.001043
v 0.082477 0.002696 0.090116
v 0.082404 -0.291005 -0.007500
v 0.081203 0.014167 0.094232
v 0.046576 -0.189123 -0.068252
v 0.071401 0.042050 0.000735
v 0.075365 0.034011 0.094858
v 0.031808 -0.189882 -0.076215
v 0.059919 -0.186741 -0.056889
v 0.072620 -0.184891 -0.039798
v -0.077825 -0.291000 -0.027592
v -0.075021 -0.182545 -0.034892
v -0.070005 -0.291000 -0.044138
v -0.065944 0.049943 0.000735
v -0.054226 0.062471 0.096721
v -0.048149 0.067500 0.000762
v -0.022856 -0.025789 0.187626
v -0.035640 -0.291000 0.074568
v -0.015867 -0.291000 0.081223
v -0.038200 -0.024296 0.182158
v 0.046053 -0.024136 0.177743
v 0.032755 -0.291000 0.076030
v 0.055430 -0.291000 0.061630
v 0.024141 0.079145 0.096216
v 0.042899 0.070911 0.000749
v 0.020346 0.080166 0.000746
v 0.043080 0.070534 0.097160
v 0.005268 -0.188370 -0.082323
v 0.017178 -0.189194 -0.080680
v -0.020807 -0.189620 -0.080010
v 0.058614 0.058182 0.000746
v -0.065904 -0.017695 0.162948
v -0.069342 -0.005479 0.161440
v -0.073113 -0.290999 0.038948
v -0.082243 0.009635 0.000888
v -0.080170 -0.177168 -0.019749
v -0.082730 -0.291015 0.007652
v -0.081781 -0.291000 -0.012280
v -0.053744 -0.188666 -0.062741
v -0.076770 0.030836 0.000748
v -0.005145 -0.188639 -0.082314
v -0.026868 0.078186 0.000756
v -0.032126 0.076358 0.096846
v -0.011654 0.081757 0.096755
v -0.003690 0.082830 0.000739
v -0.076841 0.030557 0.094126
v 0.080106 -0.178070 -0.020284
v 0.001127 -0.011126 0.193613
v -0.005226 -0.025097 0.190649
v 0.009397 -0.027361 0.189575
v 0.008397 -0.291000 0.082354
v 0.056875 -0.022103 0.170426
v 0.069423 -0.004501 0.161224
v 0.071671 -0.291000 0.041213
v 0.080147 -0.291000 0.020421
v 0.066911 -0.017600 0.161788
v -0.015068 -0.001661 0.193079
v -0.010329 0.011614 0.192905
v -0.022558 0.017099 0.189865
v -0.054986 -0.022815 0.171932
v 0.066896 0.048370 0.095985
v 0.077679 0.002445 0.122359
v 0.074172 0.026049 0.118526
v 0.042440 -0.291000 -0.070875
v 0.068727 -0.291000 -0.045881
v 0.055987 -0.291000 -0.060862
v -0.077672 0.003317 0.122560
v -0.082374 0.006948 0.091589
v -0.056145 -0.291000 0.060999
v -0.041519 -0.189318 -0.071501
v -0.067819 0.047174 0.095185
v -0.059392 0.050020 0.124714
v -0.012826 0.076354 0.126894
v -0.029682 0.071202 0.127666
v -0.019534 0.067208 0.160595
v -0.037827 0.067298 0.127117
v -0.046978 0.061429 0.125974
v 0.005069 0.082512 0.096660
v 0.077639 -0.291000 -0.028638
v 0.028576 -0.025843 0.185784
v -0.021187 -0.014371 0.190752
v 0.044733 -0.012996 0.181394
v 0.036113 -0.006130 0.186750
v 0.005960 0.000778 0.194234
v -0.031328 -0.000694 0.188730
v -0.019464 -0.291000 -0.080383
v -0.000064 -0.291000 -0.082645
v 0.054731 0.061702 0.098280
v -0.064590 -0.185739 -0.051484
v 0.013525 0.019026 0.191342
v 0.003918 0.012854 0.193316
v 0.017789 -0.012466 0.191688
v 0.020650 0.030679 0.186567
v 0.026426 0.006376 0.190211
v 0.039046 0.014552 0.184108
v 0.068903 0.010108 0.161517
v 0.058947 -0.008894 0.171907
v 0.054576 0.004917 0.175902
v -0.038335 0.011925 0.184896
v -0.035536 0.032289 0.180607
v -0.048455 0.023713 0.176400
v -0.006522 0.025659 0.190325
v -0.021633 0.029896 0.186453
v 0.072915 0.015228 0.139982
v -0.069378 0.010488 0.160128
v -0.064146 0.008091 0.166997
v -0.040123 -0.291000 -0.072435
v 0.024028 -0.291000 -0.079321
v -0.077138 0.019910 0.112135
v -0.069797 0.034572 0.123307
v -0.056214 0.041318 0.160996
v -0.063798 0.027411 0.161509
v -0.040010 0.048726 0.168528
v -0.046743 0.051596 0.161028
v 0.002954 0.076803 0.130037
v -0.066097 0.023164 0.160695
v 0.000465 0.035279 0.187231
v 0.049664 0.020581 0.176537
v -0.045420 0.003383 0.181926
v -0.054306 0.010970 0.175177
v -0.047029 -0.013442 0.179999
v -0.057181 -0.291000 -0.059676
v 0.065776 0.035939 0.137773
v 0.059935 0.048855 0.126059
v -0.026816 0.063912 0.161962
v -0.008733 0.064588 0.166467
v -0.014291 0.056435 0.172978
v -0.025734 0.048541 0.175666
v -0.036683 0.059248 0.161206
v -0.058141 0.024937 0.168372
v -0.048119 0.038573 0.169962
v 0.025489 0.043113 0.179274
v 0.004689 0.048853 0.179952
v -0.004146 0.069478 0.161114
v 0.017173 0.075095 0.128470
v 0.063702 0.028132 0.161487
v 0.054872 0.042751 0.161268
v 0.051227 0.033711 0.170286
v -0.056178 -0.004700 0.174535
v 0.004415 0.060745 0.170718
v -0.017688 0.043047 0.181439
v 0.018045 0.059180 0.169725
v 0.030655 0.055824 0.167906
v 0.013113 0.068513 0.160964
v 0.041630 0.037934 0.174464
v 0.036370 0.028675 0.181476
v 0.059093 0.023466 0.167970
v 0.030001 0.070117 0.132158
v 0.039061 0.058044 0.160417
v 0.029493 0.063150 0.160942
v 0.037359 0.047053 0.171564
v 0.047592 0.051044 0.160691
vn 1.0000 0.0009 -0.0034
vn 0.9942 0.1072 0.0091
vn 0.5318 0.1892 -0.8255
vn 0.9371 0.3489 -0.0097
vn 0.4557 0.2092 -0.8652
vn 0.7953 0.0854 -0.6002
vn -0.9041 -0.0054 -0.4273
vn -0.7023 0.7118 -0.0072
vn -0.2973 -0.3622 0.8834
vn -0.3443 -0.3541 0.8695
vn 0.5062 -0.3291 0.7972
vn 0.3796 0.9251 -0.0052
vn 0.4138 0.9104 0.0028
vn 0.1502 0.2818 -0.9476
vn 0.1181 0.2874 -0.9505
vn -0.2593 0.2643 -0.9290
vn 0.3147 0.2501 -0.9157
vn 0.2933 0.2542 -0.9216
vn 0.2198 0.2716 -0.9370
vn 0.9594 0.2820 0.0068
vn 0.6249 0.1524 -0.7657
vn -0.8668 -0.1869 0.4623
vn -0.9436 0.0260 -0.3301
vn -0.9989 0.0005 -0.0476
vn -0.6239 0.1560 -0.7657
vn -0.1569 0.2808 -0.9469
vn -0.1427 0.2836 -0.9483
vn -0.4487 0.8936 -0.0076
vn -0.2550 0.9669 0.0044
vn -0.1965 0.9805 -0.0053
vn -0.9683 0.2500 0.0000
vn 0.9905 0.0046 -0.1373
vn 0.0369 -0.2234 0.9740
vn 0.0097 -0.3767 0.9263
vn -0.0431 -0.3787 0.9245
vn 0.5718 -0.3103 0.7594
vn 0.9156 -0.1492 0.3733
vn 0.9066 -0.1570 0.3917
vn 0.6950 -0.2729 0.6653
vn -0.2040 0.0856 0.9752
vn -0.5153 -0.3251 0.7929
vn -0.5128 -0.3254 0.7945
vn -0.5195 -0.3245 0.7905
vn 0.0328 0.2937 -0.9553
vn 0.8615 0.5076 0.0071
vn 0.9874 0.0568 0.1474
vn 0.9510 0.2753 0.1406
vn 0.4744 0.0034 -0.8803
vn 0.7618 -0.0040 -0.6478
vn 0.8024 0.0048 -0.5968
vn 0.6479 0.0046 -0.7617
vn -0.9787 -0.0598 0.1962
vn -0.9886 -0.0398 0.1454
vn -0.9682 -0.0027 -0.2501
vn -0.6846 -0.2761 0.6746
vn -0.9465 0.0027 -0.3228
vn -0.9899 0.0047 -0.1419
vn -1.0000 0.0016 -0.0014
vn -0.5675 0.1733 -0.8049
vn -0.7465 0.6482 0.1506
vn -0.0593 0.2923 -0.9545
vn -0.0084 0.2926 -0.9562
vn -0.2800 0.9430 0.1800
vn -0.2781 0.9396 0.1996
vn -0.5265 0.8366 0.1512
vn -0.5470 0.8208 0.1648
vn -0.5320 0.8466 0.0107
vn 0.1102 0.9939 -0.0068
vn 0.1739 0.9847 0.0036
vn 0.9755 -0.0050 -0.2199
vn 0.9295 0.0309 -0.3674
vn 0.2336 -0.3687 0.8997
vn 0.2082 -0.3691 0.9057
vn -0.1023 -0.1617 0.9815
vn 0.3997 -0.1967 0.8953
vn 0.4202 -0.3414 0.8408
vn 0.7573 -0.2525 0.6023
vn 0.9964 -0.0270 0.0805
vn 0.9883 -0.0427 0.1468
vn -0.0512 -0.0313 0.9982
vn -0.1077 -0.1286 0.9858
vn -0.9498 -0.1127 0.2919
vn -0.2543 0.0638 0.9650
vn -0.5221 -0.3241 0.7889
vn -0.1158 -0.0025 -0.9933
vn 0.9785 -0.0602 0.1971
vn 0.7837 0.6212 -0.0041
vn 0.7392 0.6735 0.0051
vn 0.6294 0.7771 -0.0030
vn -0.7678 -0.2478 0.5908
vn -0.6978 0.1260 -0.7051
vn -0.7478 0.6640 0.0046
vn -0.0450 0.9990 0.0074
vn 0.9329 0.0063 -0.3601
vn 0.1392 0.0984 0.9854
vn -0.1427 -0.3718 0.9173
vn 0.0972 -0.1933 0.9763
vn -0.1549 -0.2398 0.9584
vn 0.3102 0.2126 0.9266
vn 0.4251 -0.2360 0.8738
vn 0.7084 0.0147 0.7056
vn 0.7109 0.0120 0.7032
vn 0.7116 0.0113 0.7025
vn 0.7051 0.0182 0.7089
vn -0.4423 0.2426 0.8634
vn -0.2608 -0.0509 0.9640
vn -0.1688 0.2653 0.9493
vn 0.2862 0.2082 0.9353
vn -0.3292 0.1024 0.9387
vn -0.0009 0.0032 -1.0000
vn 0.9766 0.0305 0.2129
vn 0.9757 0.0851 0.2020
vn 0.5944 -0.0034 -0.8042
vn 0.8883 -0.0063 -0.4591
vn -0.7862 0.0488 0.6160
vn -0.9770 0.0153 0.2128
vn -0.3665 0.2344 -0.9004
vn -0.4016 0.2269 -0.8873
vn -0.0001 -1.0000 0.0000
vn 0.0000 -1.0000 0.0000
vn 0.0014 -1.0000 -0.0003
vn -0.0006 -1.0000 0.0000
vn -0.0012 -1.0000 0.0001
vn -0.9281 0.3214 0.1880
vn -0.9277 0.3268 0.1806
vn -0.9275 0.3282 0.1787
vn -0.8788 0.4771 0.0008
vn -0.8701 0.4929 -0.0028
vn -0.8230 0.5377 0.1831
vn -0.8524 0.4731 0.2225
vn -0.8732 0.4647 0.1468
vn -0.3799 0.0033 -0.9250
vn -0.4349 0.8819 0.1820
vn -0.5422 0.4976 0.6771
vn -0.2510 0.9544 0.1614
vn -0.0625 0.9828 0.1738
vn -0.9506 0.2371 0.2002
vn -0.9702 0.2154 0.1114
vn -0.9737 0.2276 0.0053
vn 0.0549 0.2693 0.9615
vn 0.1067 -0.0949 0.9897
vn 0.1697 0.0853 0.9818
vn 0.4030 0.0595 0.9133
vn 0.5254 0.1307 0.8408
vn 0.3092 -0.1641 0.9367
vn 0.6876 -0.1866 0.7017
vn -0.0588 0.0340 0.9977
vn -0.0348 0.0699 0.9969
vn -0.5289 0.1482 0.8356
vn -0.5111 0.1536 0.8457
vn -0.1431 0.2162 0.9658
vn 0.1043 0.3218 0.9410
vn 0.0273 0.2657 0.9637
vn -0.1262 0.3859 0.9139
vn -0.1261 0.3855 0.9140
vn -0.3844 -0.1504 0.9108
vn 0.1364 -0.0040 -0.9906
vn 0.1366 -0.0040 -0.9906
vn 0.1367 -0.0040 -0.9906
vn -0.1457 0.0017 -0.9893
vn -0.8385 0.0691 -0.5404
vn -0.7197 0.0034 -0.6943
vn 0.8955 0.4063 0.1818
vn 0.7427 0.6499 0.1614
vn 0.9601 0.2230 0.1688
vn 0.9769 0.1240 0.1741
vn 0.4170 -0.0042 -0.9089
vn 0.2922 0.0069 -0.9563
vn -0.7553 0.1671 0.6337
vn -0.9713 0.1482 0.1861
vn 0.0024 -1.0000 -0.0004
vn 0.0033 -1.0000 -0.0005
vn -0.5990 -0.0039 -0.8008
vn -0.9282 0.3203 0.1896
vn -0.3671 0.9031 0.2226
vn -0.1949 0.7109 0.6757
vn -0.1990 0.6908 0.6951
vn -0.3430 0.6077 0.7163
vn -0.3480 0.6101 0.7118
vn -0.3424 0.6075 0.7168
vn -0.3419 0.6072 0.7172
vn -0.6440 0.3758 0.6664
vn -0.6255 0.3803 0.6812
vn -0.3888 0.4745 0.7897
vn -0.4318 0.4548 0.7789
vn -0.5443 0.5269 0.6528
vn -0.8210 0.5347 0.2002
vn -0.0435 0.9852 0.1658
vn -0.9772 0.1346 0.1641
vn -0.2643 0.6314 0.7290
vn 0.1541 0.4546 0.8773
vn -0.1364 0.7868 0.6019
vn 0.1364 0.9750 0.1754
vn 0.1752 0.9715 0.1598
vn -0.0702 0.9744 0.2136
vn 0.6409 0.3970 0.6570
vn 0.4872 0.0423 0.8723
vn 0.2068 -0.2507 0.9457
vn 0.5739 -0.1797 0.7989
vn 0.5823 -0.1900 0.7904
vn -0.5755 0.3361 0.7456
vn -0.3345 0.2653 0.9043
vn -0.7045 -0.0207 0.7094
vn -0.6089 0.2061 0.7660
vn -0.0450 0.1923 0.9803
vn -0.0570 0.6465 0.7608
vn -0.0456 0.6120 0.7895
vn -0.0688 0.4880 0.8701
vn -0.1263 0.3863 0.9137
vn -0.5190 -0.2602 0.8142
vn -0.7712 -0.0048 -0.6366
vn -0.8460 0.0063 -0.5331
vn 0.6040 0.7970 0.0020
vn -0.6097 -0.1519 0.7779
vn -0.5825 -0.0005 -0.8128
vn -0.5463 0.8109 0.2098
vn -0.4312 0.8746 0.2217
vn -0.4335 0.8737 0.2209
vn -0.4328 0.8739 0.2211
vn -0.4305 0.8749 0.2219
vn -0.5929 0.7743 0.2212
vn -0.6745 0.7126 0.1928
vn -0.6745 0.7127 0.1925
vn -0.6741 0.7116 0.1981
vn -0.1963 0.5589 0.8057
vn 0.2764 -0.0514 0.9597
vn 0.1963 -0.0131 0.9805
vn 0.2656 0.5805 0.7697
vn 0.1817 0.5633 0.8061
vn 0.1321 0.7146 0.6869
vn 0.1396 0.9670 0.2133
vn 0.4942 0.3250 0.8063
vn 0.4974 0.3263 0.8039
vn 0.4958 0.3257 0.8050
vn 0.4940 0.3250 0.8064
vn 0.4659 0.2467 0.8497
vn 0.3263 0.2326 0.9162
vn 0.6384 0.3334 0.6937
vn 0.7321 -0.1114 0.6720
vn 0.5658 -0.0588 0.8224
vn 0.5157 -0.0208 0.8565
vn -0.8751 0.4319 0.2184
vn -0.6466 0.0460 0.7615
vn -0.3623 0.2395 0.9008
vn -0.3049 0.4406 0.8444
vn -0.0869 0.5478 0.8321
vn -0.3849 -0.1313 0.9136
vn -0.3461 -0.2004 0.9166
vn 0.5031 0.8412 0.1981
vn 0.8235 0.5374 0.1819
vn 0.8547 0.4909 0.1689
vn -0.6690 -0.1487 0.7283
vn -0.6978 -0.1090 0.7080
vn -0.3590 -0.0013 -0.9333
vn -0.4677 0.5997 0.6493
vn -0.6736 0.7104 0.2038
vn -0.7175 0.6605 0.2213
vn -0.0018 0.7391 0.6736
vn -0.1496 0.9614 0.2311
vn 0.2394 0.7288 0.6416
vn 0.2793 0.6844 0.6735
vn 0.4689 0.8565 0.2156
vn 0.8296 0.5047 0.2387
vn 0.3129 0.5594 0.7676
vn 0.8039 0.5558 0.2119
vn 0.5289 0.4829 0.6979
vn -0.6567 0.2169 0.7223
vn -0.2907 0.4158 0.8617
vn -0.5844 0.0366 0.8106
vn -0.5430 -0.0441 0.8386
vn -0.4479 -0.0594 0.8921
vn -0.4254 0.0385 0.9042
vn 0.1289 0.4372 0.8901
vn 0.9269 0.3104 0.2109
vn 0.9049 0.3743 0.2024
vn 0.0481 0.7600 0.6482
vn 0.0563 0.9688 0.2412
vn 0.9331 0.2697 0.2379
vn 0.5179 0.4699 0.7148
vn 0.3285 0.3795 0.8649
vn 0.7260 0.6524 0.2175
vn 0.7198 0.2088 0.6620
vn 0.5946 0.2868 0.7511
vn -0.7188 0.2019 0.6653
vn -0.6592 0.1753 0.7312
vn -0.4941 0.3550 0.7936
vn 0.1270 0.6102 0.7820
vn 0.6176 0.7605 0.2005
vn 0.5809 0.7908 0.1930
vn 0.4018 0.9015 0.1609
vn 0.5257 0.5089 0.6816
vn 0.3903 0.6660 0.6357
vn 0.3092 0.9330 0.1840
vn 0.2969 0.9278 0.2257
vn 0.3032 0.9250 0.2292
vn 0.3019 0.9256 0.2285
vn 0.3829 0.4380 0.8134
vn 0.3791 0.4121 0.8285
vn 0.6813 0.7046 0.1983
vn 0.6743 0.1454 0.7240
vn 0.6341 0.1683 0.7547
vn 0.4323 0.6082 0.6657
vn 0.4659 0.5934 0.6563
vn 0.2956 0.9284 0.2250
usemtl DefaultMaterial.003
s 1
f 1//1 2//1 3//1
f 1//2 4//2 2//2
f 5//3 6//3 1//3
f 6//4 7//4 1//4
f 5//5 8//5 6//5
f 9//6 1//6 10//6
f 11//7 12//7 13//7
f 14//8 15//8 16//8
f 17//9 18//9 19//9
f 20//10 18//10 17//10
f 21//11 22//11 23//11
f 24//12 25//12 26//12
f 25//13 24//13 27//13
f 28//14 25//14 29//14
f 28//15 26//15 25//15
f 16//16 30//16 14//16
f 8//17 31//17 6//17
f 29//18 31//18 8//18
f 29//19 25//19 31//19
f 7//20 4//20 1//20
f 5//21 1//21 9//21
f 32//22 33//22 34//22
f 35//23 12//23 36//23
f 37//24 35//24 38//24
f 39//25 35//25 40//25
f 16//26 41//26 30//26
f 42//27 41//27 16//27
f 16//28 43//28 42//28
f 44//29 42//29 43//29
f 44//30 45//30 42//30
f 46//31 40//31 35//31
f 3//32 47//32 1//32
f 48//33 49//33 50//33
f 49//34 51//34 50//34
f 49//35 19//35 51//35
f 52//36 21//36 23//36
f 53//37 54//37 55//37
f 53//38 56//38 54//38
f 52//39 23//39 56//39
f 57//40 58//40 59//40
f 18//41 20//42 60//43
f 28//44 45//44 26//44
f 7//45 6//45 61//45
f 2//46 4//46 62//46
f 4//47 7//47 63//47
f 8//48 5//48 64//48
f 9//49 65//49 66//49
f 10//50 65//50 9//50
f 66//51 5//51 9//51
f 33//52 67//52 37//52
f 67//53 68//53 37//53
f 36//54 11//54 38//54
f 32//55 69//55 60//55
f 36//56 12//56 11//56
f 38//57 35//57 36//57
f 68//58 35//58 37//58
f 70//59 39//59 40//59
f 15//60 71//60 72//60
f 41//61 42//61 45//61
f 41//62 45//62 28//62
f 73//63 43//63 74//63
f 73//64 74//64 75//64
f 76//65 43//65 15//65
f 15//66 77//66 76//66
f 43//67 16//67 15//67
f 78//68 26//68 45//68
f 78//69 24//69 26//69
f 79//70 47//70 3//70
f 1//71 47//71 10//71
f 80//72 51//72 22//72
f 80//73 50//73 51//73
f 81//74 49//74 48//74
f 82//75 83//75 80//75
f 21//76 80//76 22//76
f 56//77 23//77 54//77
f 55//78 3//78 2//78
f 2//79 62//79 55//79
f 84//80 57//80 48//80
f 57//81 81//81 48//81
f 33//82 37//82 34//82
f 85//83 57//83 59//83
f 69//84 18//41 60//43
f 86//85 41//85 87//85
f 53//86 55//86 62//86
f 31//87 61//87 6//87
f 61//88 31//88 88//88
f 31//89 25//89 88//89
f 32//90 34//90 69//90
f 35//91 39//91 89//91
f 14//92 71//92 15//92
f 44//93 78//93 45//93
f 79//94 10//94 47//94
f 90//95 91//95 84//95
f 49//96 17//96 19//96
f 92//97 48//97 50//97
f 49//98 81//98 17//98
f 93//99 94//99 95//99
f 80//100 21//100 82//100
f 96//101 97//102 53//103
f 96//101 98//104 97//102
f 99//105 100//105 101//105
f 81//106 57//106 85//106
f 102//107 103//107 59//107
f 90//108 94//108 93//108
f 85//109 59//109 99//109
f 41//110 28//110 87//110
f 62//111 96//111 53//111
f 62//112 104//112 96//112
f 5//113 66//113 64//113
f 65//114 10//114 79//114
f 105//115 33//115 106//115
f 67//116 33//116 105//116
f 30//117 70//117 14//117
f 70//118 40//118 14//118
f 79//119 107//120 86//120
f 66//120 65//120 79//119
f 79//119 19//120 18//120
f 23//120 22//120 79//119
f 79//119 22//120 51//120
f 79//119 51//120 19//120
f 79//119 38//121 107//120
f 38//121 79//119 18//120
f 18//120 69//120 38//121
f 79//119 108//120 64//120
f 79//119 55//122 54//120
f 79//119 54//120 23//120
f 79//119 86//120 87//120
f 79//119 64//120 66//120
f 87//120 108//120 79//119
f 79//119 3//123 55//122
f 109//124 110//125 46//126
f 71//127 40//127 46//127
f 40//128 71//128 14//128
f 110//129 72//129 71//129
f 111//130 110//130 112//130
f 110//131 71//131 46//131
f 107//132 70//132 30//132
f 76//133 74//133 43//133
f 111//134 113//134 114//134
f 43//135 73//135 44//135
f 115//136 44//136 73//136
f 116//137 109//137 105//137
f 68//138 109//138 46//138
f 68//139 46//139 35//139
f 102//140 91//140 117//140
f 48//141 92//141 84//141
f 94//142 90//142 84//142
f 94//143 83//143 95//143
f 95//144 98//144 118//144
f 80//145 83//145 92//145
f 97//146 52//146 56//146
f 84//147 58//147 57//147
f 84//148 91//148 58//148
f 119//149 99//149 101//149
f 120//150 119//150 101//150
f 58//151 102//151 59//151
f 117//152 90//152 93//152
f 91//153 90//153 117//153
f 117//154 103//155 102//155
f 85//156 121//156 81//156
f 28//157 108//158 87//159
f 108//158 28//157 29//157
f 41//160 86//160 30//160
f 89//161 12//161 35//161
f 39//162 122//162 89//162
f 7//163 123//163 63//163
f 88//164 124//164 61//164
f 4//165 63//165 104//165
f 104//166 62//166 4//166
f 64//167 108//167 8//167
f 108//168 29//168 8//168
f 116//169 105//169 106//169
f 105//170 109//170 67//170
f 38//121 122//120 107//120
f 38//121 13//120 122//120
f 38//121 11//120 13//120
f 38//121 34//171 37//172
f 38//121 69//120 34//171
f 122//173 39//173 107//173
f 110//125 109//124 116//174
f 75//175 74//175 125//175
f 126//176 75//176 125//176
f 127//177 126//177 125//177
f 113//178 128//179 125//180
f 113//178 125//180 129//181
f 111//182 112//182 130//182
f 131//183 111//183 130//183
f 100//184 128//184 113//184
f 113//185 131//185 100//185
f 113//186 111//186 131//186
f 111//187 72//187 110//187
f 44//188 115//188 78//188
f 68//189 67//189 109//189
f 125//190 128//190 127//190
f 132//191 133//191 93//191
f 126//192 134//192 75//192
f 135//193 78//193 115//193
f 135//194 24//194 78//194
f 134//195 115//195 73//195
f 136//196 137//196 138//196
f 95//197 83//197 98//197
f 92//198 50//198 80//198
f 21//199 52//199 97//199
f 97//200 82//200 21//200
f 101//201 131//201 130//201
f 103//202 100//202 59//202
f 106//203 33//203 139//203
f 120//204 101//204 130//204
f 58//205 91//205 102//205
f 126//206 127//206 140//206
f 140//207 127//207 133//207
f 141//208 117//208 133//208
f 117//154 141//209 103//155
f 121//210 60//210 20//210
f 89//211 122//211 13//211
f 89//212 13//212 12//212
f 27//213 88//213 25//213
f 121//214 139//214 60//214
f 39//215 70//215 107//215
f 77//216 129//216 76//216
f 74//217 76//218 129//219
f 74//217 129//219 125//220
f 114//221 129//221 77//221
f 77//222 15//223 72//224
f 127//225 128//225 141//225
f 94//226 92//226 83//226
f 94//227 84//227 92//227
f 142//228 132//228 143//228
f 142//229 133//229 132//229
f 144//230 140//230 142//230
f 135//231 115//231 144//231
f 145//232 146//233 118//234
f 118//234 138//235 145//232
f 95//236 118//236 146//236
f 93//237 95//237 146//237
f 136//238 138//238 147//238
f 53//239 97//239 56//239
f 97//240 98//240 82//240
f 82//241 98//241 83//241
f 112//242 110//242 116//242
f 106//243 139//243 120//243
f 99//244 59//244 100//244
f 100//245 141//245 128//245
f 141//246 133//246 127//246
f 20//247 81//247 121//247
f 20//248 17//248 81//248
f 148//249 149//249 27//249
f 124//250 123//250 61//250
f 7//251 61//251 123//251
f 60//252 139//252 32//252
f 139//253 33//253 32//253
f 107//254 30//254 86//254
f 129//255 114//255 113//255
f 72//224 114//256 77//222
f 72//257 111//257 114//257
f 140//258 134//258 126//258
f 134//259 73//259 75//259
f 150//260 144//260 142//260
f 150//261 142//261 143//261
f 150//262 149//262 148//262
f 136//263 123//263 137//263
f 151//264 143//264 132//264
f 124//265 137//265 123//265
f 151//266 138//266 137//266
f 106//267 112//267 116//267
f 141//268 100//268 103//268
f 120//269 139//269 119//269
f 121//270 119//270 139//270
f 119//271 121//271 85//271
f 99//272 119//272 85//272
f 117//273 93//273 133//273
f 63//274 136//274 104//274
f 123//275 136//275 63//275
f 134//276 140//276 144//276
f 115//277 134//277 144//277
f 136//278 96//278 104//278
f 145//279 138//279 151//279
f 132//280 93//280 146//280
f 152//281 137//281 124//281
f 96//282 136//282 147//282
f 147//283 138//283 118//283
f 106//284 130//284 112//284
f 130//285 106//285 120//285
f 101//286 100//286 131//286
f 142//287 140//287 133//287
f 88//288 149//288 152//288
f 88//289 27//289 149//289
f 24//290 148//290 27//290
f 152//291 151//291 137//291
f 150//292 143//292 149//292
f 148//293 24//293 135//293
f 144//294 150//295 148//296
f 132//297 145//297 151//297
f 132//298 146//298 145//298
f 152//299 124//299 88//299
f 98//300 96//300 147//300
f 98//301 147//301 118//301
f 143//302 151//302 149//302
f 151//303 152//303 149//303
f 148//296 135//304 144//294
